<svg width="12" height="12" viewBox="0 0 12 12" fill="none" xmlns="http://www.w3.org/2000/svg">
<path d="M11.3466 6.32671C11.3466 5.63858 11.2241 4.97881 10.9995 4.36843C10.846 6.16686 9.8872 7.0906 8.88536 6.66043C7.94693 6.2573 8.57934 4.6858 8.62606 3.93592C8.70482 2.66477 8.62205 1.20974 6.31303 0C7.27248 1.83547 6.42416 2.9758 5.53445 3.04522C4.5473 3.12231 3.64325 2.1969 3.97697 0.695144C2.89638 1.49141 2.86501 2.83164 3.1984 3.69865C3.54614 4.60237 3.18438 5.35324 2.33639 5.43667C1.38862 5.53012 0.862005 4.42182 1.34757 2.65576C0.507258 3.64525 0 4.92674 0 6.32671C0 9.46003 2.53996 12 5.67328 12C8.8066 12 11.3466 9.46003 11.3466 6.32671Z" fill="#F4900C"/>
<path d="M9.14202 7.99501C9.19141 9.02421 8.28736 9.42768 7.80079 9.23278C7.09797 8.95145 7.28652 8.46822 7.10565 7.46706C6.92477 6.46589 6.22963 5.77075 5.20076 5.46472C5.95163 7.57819 4.78461 8.35709 4.17289 8.49626C3.54817 8.63842 2.92043 8.49592 2.84868 7.15903C2.11983 7.88454 1.66864 8.88838 1.66864 9.99767C1.66864 10.1205 1.67632 10.2413 1.68699 10.3614C2.71152 11.3739 4.11883 12 5.67331 12C7.22779 12 8.6351 11.3739 9.65963 10.3614C9.6703 10.2413 9.67798 10.1205 9.67798 9.99767C9.67798 9.26782 9.48309 8.58403 9.14202 7.99501Z" fill="#FFCC4D"/>
</svg>
