<svg width="24" height="24" viewBox="0 0 24 24" fill="none" xmlns="http://www.w3.org/2000/svg">
<path d="M10.3172 4.61991C11.1044 3.39439 12.8956 3.39439 13.6828 4.61991L14.988 6.65204C15.2589 7.07371 15.6781 7.37833 16.1629 7.50561L18.4989 8.11901C19.9077 8.48893 20.4612 10.1925 19.5389 11.3198L18.0096 13.1892C17.6922 13.5771 17.5321 14.0699 17.5608 14.5703L17.6993 16.9815C17.7828 18.4357 16.3337 19.4885 14.9765 18.9597L12.7261 18.0829C12.2591 17.901 11.7409 17.901 11.2739 18.0829L9.0235 18.9597C7.66633 19.4885 6.21719 18.4356 6.30071 16.9815L6.4392 14.5703C6.46794 14.0699 6.30779 13.5771 5.99045 13.1892L4.46112 11.3198C3.53883 10.1925 4.09235 8.48893 5.50114 8.11901L7.83715 7.50561C8.32188 7.37833 8.74115 7.07371 9.01199 6.65204L10.3172 4.61991Z" fill="#FFC700"/>
</svg>
