<svg width="8" height="8" viewBox="0 0 8 8" fill="none" xmlns="http://www.w3.org/2000/svg">
<path d="M7.84635 3.50424L5.75247 2.72918L4.97058 0.166588C4.94047 0.0677647 4.84894 0 4.74564 0C4.64235 0 4.55082 0.0677647 4.5207 0.166588L3.73905 2.72918L1.64493 3.50424C1.55246 3.53859 1.49129 3.62635 1.49129 3.72494C1.49129 3.8233 1.55246 3.91153 1.64493 3.94565L3.73788 4.72047L4.51999 7.36118C4.54964 7.46094 4.64141 7.52942 4.74564 7.52942C4.84964 7.52942 4.94164 7.46094 4.97129 7.36094L5.75341 4.72024L7.84658 3.94541C7.93858 3.91153 8 3.82353 8 3.72494C8 3.62659 7.93858 3.53859 7.84635 3.50424Z" fill="#FFAC33"/>
<path d="M3.14047 6.09271L2.596 5.8913L2.38424 5.11483C2.35647 5.01224 2.26353 4.94118 2.15741 4.94118C2.05129 4.94118 1.95835 5.01224 1.93035 5.11459L1.71859 5.89106L1.17435 6.09247C1.08188 6.12659 1.02071 6.21483 1.02071 6.31318C1.02071 6.41153 1.08188 6.49977 1.17435 6.53388L1.71577 6.73459L1.92918 7.58683C1.95553 7.6913 2.04941 7.76471 2.15741 7.76471C2.26541 7.76471 2.35929 7.6913 2.38565 7.58659L2.59906 6.73435L3.14047 6.53365C3.23294 6.49977 3.29412 6.41153 3.29412 6.31318C3.29412 6.21483 3.23294 6.12659 3.14047 6.09271ZM2.11977 0.995529L1.56353 0.789647L1.35741 0.233176C1.32329 0.140705 1.23529 0.0795288 1.13671 0.0795288C1.03835 0.0795288 0.950353 0.140705 0.916 0.233176L0.710118 0.789647L0.153647 0.995529C0.0611765 1.02988 0 1.11788 0 1.21624C0 1.31459 0.0611765 1.40282 0.153647 1.43694L0.710118 1.64282L0.916 2.19929C0.950353 2.29176 1.03835 2.35294 1.13671 2.35294C1.23506 2.35294 1.32306 2.29176 1.35741 2.19929L1.56329 1.64282L2.11977 1.43694C2.21224 1.40259 2.27341 1.31459 2.27341 1.21624C2.27341 1.11788 2.21224 1.02988 2.11977 0.995529Z" fill="#FFCC4D"/>
</svg>
